<svg width="24" height="24" viewBox="0 0 24 24" fill="none" xmlns="http://www.w3.org/2000/svg">
<g clip-path="url(#clip0)">
<path d="M0 12.0001C0 18.6275 5.37253 24 11.9999 24C18.6273 24 24.0001 18.6275 24.0001 12.0001C24.0001 5.37268 18.6273 -7.43866e-05 11.9999 -7.43866e-05C5.37561 0.0073967 0.00747067 5.37554 0 12.0001H0ZM22.7999 12.0001C22.7999 17.9648 17.9646 22.8001 11.9999 22.8001C6.03523 22.8001 1.19993 17.9648 1.19993 12.0001C1.19993 6.03538 6.03523 1.20007 11.9999 1.20007C17.9618 1.20688 22.7931 6.03823 22.7999 12.0001Z" fill="#0075FF"/>
<path d="M6.94396 14.4405C6.7068 14.7444 6.73451 15.2058 7.00558 15.4714C7.27689 15.7368 7.68887 15.7058 7.92603 15.4022L12 10.1871L16.0742 15.4024C16.3114 15.7063 16.7233 15.7371 16.9944 15.4717C17.2657 15.2061 17.2934 14.7447 17.0563 14.4408L12.491 8.5974C12.3673 8.43877 12.1882 8.34783 12 8.34783C11.8118 8.34783 11.6329 8.43877 11.509 8.5974L6.94396 14.4405Z" fill="#0075FF"/>
</g>
<defs>
<clipPath id="clip0">
<rect width="24" height="24" fill="white" transform="translate(0 24) rotate(-90)"/>
</clipPath>
</defs>
</svg>
