<svg width="23" height="30" viewBox="0 0 23 30" fill="none" xmlns="http://www.w3.org/2000/svg">
<path d="M22.1492 17.7716V16.2271C22.1492 15.1295 21.2563 14.2366 20.1587 14.2366H18.2198V11.3516C18.3451 11.3461 18.4705 11.3412 18.5956 11.3354C20.0161 11.2695 21.1728 10.1978 21.346 8.78713C21.5929 6.77451 21.5929 4.73354 21.346 2.72098C21.1728 1.31026 20.0161 0.238616 18.5956 0.172815C18.0724 0.148673 17.558 0.127521 17.0664 0.109942C16.8241 0.101036 16.6202 0.290824 16.6116 0.533407C16.6029 0.775989 16.7924 0.979606 17.035 0.988278C17.5235 1.00574 18.0349 1.02677 18.555 1.0508C19.5459 1.09668 20.3528 1.84417 20.4735 2.82804C20.7118 4.76957 20.7118 6.73854 20.4735 8.68007C20.3528 9.664 19.5459 10.4114 18.5551 10.4574C13.5915 10.6859 8.55788 10.6859 3.59426 10.4574C2.60331 10.4114 1.7964 9.664 1.67569 8.68007C1.43745 6.73854 1.43745 4.76957 1.67569 2.82804C1.79646 1.84411 2.60331 1.09668 3.59414 1.0508C7.46908 0.872319 11.4016 0.832533 15.2827 0.93273C15.5256 0.937769 15.7271 0.747336 15.7333 0.504754C15.7396 0.262113 15.5479 0.0603712 15.3054 0.0541015C11.4035 -0.0465643 7.44956 -0.00660268 3.5536 0.172756C2.13308 0.238616 0.976482 1.31026 0.803276 2.72093C0.556357 4.73354 0.556357 6.77451 0.803276 8.78707C0.976423 10.1977 2.13308 11.2694 3.55366 11.3353C3.67893 11.341 3.80438 11.346 3.92972 11.3515V14.2365H1.99052C0.892984 14.2365 0 15.1294 0 16.227V17.7716C0 18.7801 0.754056 19.6151 1.72778 19.7442C1.62905 20.2132 1.53419 20.6827 1.44483 21.1456C1.39883 21.3839 1.55475 21.6144 1.79306 21.6604C1.82118 21.6658 1.84919 21.6684 1.87679 21.6684C2.08316 21.6684 2.26727 21.5223 2.30781 21.3121C2.4066 20.8002 2.51231 20.2804 2.62253 19.762H5.37736C4.20945 23.5677 3.37096 27.8635 3.13611 29.121H1.37416C1.4051 27.3904 1.61587 25.3414 2.00171 23.0219C2.04156 22.7825 1.87972 22.5561 1.64036 22.5163C1.40094 22.4763 1.17453 22.6383 1.13475 22.8776C0.707767 25.4443 0.491317 27.6927 0.491317 29.5604C0.491317 29.8031 0.688079 29.9999 0.930778 29.9999H3.5025C3.71579 29.9999 3.89825 29.8468 3.93528 29.6367C3.94126 29.6028 4.31011 27.5273 4.92682 24.8811H17.2218C17.8387 27.5272 18.2077 29.6029 18.2137 29.6368C18.2507 29.8468 18.4333 29.9999 18.6465 29.9999H21.2182C21.4609 29.9999 21.6577 29.8031 21.6577 29.5604C21.6577 27.741 21.4395 24.5791 20.4211 19.7442C21.3949 19.6154 22.1492 18.7802 22.1492 17.7716ZM17.3409 14.2366H15.4694V11.4484C16.0939 11.4317 16.7178 11.4115 17.3409 11.3876V14.2366ZM14.5904 11.4697V14.2366H7.55908V11.4697C8.72974 11.4947 9.90211 11.5077 11.0746 11.5077C12.2472 11.5077 13.4197 11.4947 14.5904 11.4697ZM4.80864 11.3877C5.43168 11.4115 6.05559 11.4318 6.68016 11.4485V14.2366H4.80864V11.3877ZM15.8505 19.7622C16.0458 20.3861 16.2322 21.0258 16.4085 21.6655H5.73989C5.91608 21.0259 6.10253 20.3861 6.29771 19.7622H15.8505ZM5.13595 24.0023C5.25173 23.5261 5.37449 23.0376 5.50375 22.5444H16.6446C16.7739 23.0376 16.8967 23.5261 17.0125 24.0023H5.13595ZM19.0126 29.1211C18.7776 27.8636 17.9387 23.5674 16.7708 19.7622H19.5264C20.088 22.404 20.7185 26.0159 20.7746 29.1211H19.0126ZM21.2703 17.7716C21.2703 18.3845 20.7716 18.8832 20.1587 18.8832H1.99052C1.37762 18.8832 0.878922 18.3846 0.878922 17.7716V16.2271C0.878922 15.6142 1.37756 15.1155 1.99052 15.1155H20.1587C20.7716 15.1155 21.2703 15.6141 21.2703 16.2271V17.7716Z" fill="white"/>
</svg>
