<svg width="30" height="30" viewBox="0 0 30 30" fill="none" xmlns="http://www.w3.org/2000/svg">
<g clip-path="url(#clip0)">
<path d="M26.0746 17.7718V16.2272C26.0746 15.1297 25.1817 14.2367 24.0841 14.2367H22.1452V11.3517C22.2705 11.3462 22.3959 11.3413 22.5211 11.3355C23.9416 11.2696 25.0982 10.1979 25.2714 8.78725C25.5183 6.77463 25.5183 4.73366 25.2714 2.72111C25.0982 1.31038 23.9416 0.238739 22.5211 0.172937C21.9979 0.148796 21.4834 0.127643 20.9918 0.110064C20.7496 0.101158 20.5456 0.290946 20.537 0.533529C20.5283 0.776111 20.7179 0.979728 20.9604 0.9884C21.4489 1.00586 21.9604 1.0269 22.4804 1.05092C23.4713 1.0968 24.2783 1.84429 24.399 2.82816C24.6372 4.7697 24.6372 6.73866 24.399 8.68019C24.2782 9.66412 23.4713 10.4116 22.4805 10.4575C17.5169 10.6861 12.4833 10.6861 7.51968 10.4575C6.52872 10.4116 5.72181 9.66412 5.60111 8.68019C5.36286 6.73866 5.36286 4.7697 5.60111 2.82816C5.72187 1.84424 6.52872 1.0968 7.51956 1.05092C11.3945 0.872441 15.327 0.832655 19.2081 0.932852C19.451 0.937891 19.6525 0.747458 19.6588 0.504876C19.665 0.262235 19.4734 0.0604932 19.2308 0.0542236C15.3289 -0.0464422 11.375 -0.00648061 7.47901 0.172878C6.0585 0.238739 4.9019 1.31038 4.72869 2.72105C4.48177 4.73366 4.48177 6.77463 4.72869 8.78719C4.90184 10.1979 6.0585 11.2696 7.47907 11.3354C7.60435 11.3412 7.7298 11.3461 7.85513 11.3516V14.2366H5.91594C4.8184 14.2366 3.92542 15.1295 3.92542 16.2271V17.7717C3.92542 18.7802 4.67947 19.6153 5.6532 19.7444C5.55447 20.2133 5.4596 20.6828 5.37025 21.1458C5.32425 21.3841 5.48017 21.6145 5.71847 21.6605C5.7466 21.666 5.77461 21.6685 5.80221 21.6685C6.00858 21.6685 6.19268 21.5224 6.23323 21.3122C6.33202 20.8003 6.43772 20.2805 6.54794 19.7622H9.30278C8.13486 23.5678 7.29637 27.8637 7.06152 29.1211H5.29958C5.33052 27.3905 5.54128 25.3415 5.92713 23.022C5.96697 22.7826 5.80514 22.5562 5.56578 22.5164C5.32636 22.4765 5.09995 22.6384 5.06016 22.8778C4.63318 25.4444 4.41673 27.6928 4.41673 29.5606C4.41673 29.8033 4.61349 30 4.85619 30H7.42792C7.6412 30 7.82367 29.8469 7.8607 29.6369C7.86668 29.6029 8.23553 27.5274 8.85224 24.8812H21.1472C21.7641 27.5273 22.1332 29.603 22.1391 29.6369C22.1762 29.8469 22.3587 30 22.5719 30H25.1436C25.3863 30 25.5831 29.8033 25.5831 29.5606C25.5831 27.7411 25.3649 24.5792 24.3465 19.7444C25.3204 19.6156 26.0746 18.7804 26.0746 17.7718ZM21.2663 14.2367H19.3948V11.4486C20.0193 11.4319 20.6433 11.4116 21.2663 11.3877V14.2367ZM18.5159 11.4698V14.2367H11.4845V11.4698C12.6552 11.4948 13.8275 11.5078 15 11.5078C16.1726 11.5079 17.3451 11.4948 18.5159 11.4698ZM8.73405 11.3878C9.35709 11.4116 9.98101 11.4319 10.6056 11.4486V14.2367H8.73405V11.3878ZM19.7759 19.7623C19.9712 20.3862 20.1576 21.0259 20.3339 21.6656H9.6653C9.8415 21.026 10.0279 20.3862 10.2231 19.7623H19.7759ZM9.06136 24.0024C9.17715 23.5262 9.2999 23.0377 9.42916 22.5445H20.57C20.6993 23.0377 20.8221 23.5262 20.9379 24.0024H9.06136ZM22.938 29.1212C22.703 27.8637 21.8641 23.5675 20.6962 19.7623H23.4518C24.0134 22.4041 24.6439 26.016 24.7 29.1212H22.938ZM25.1957 17.7718C25.1957 18.3847 24.697 18.8834 24.0841 18.8834H5.91594C5.30304 18.8834 4.80434 18.3847 4.80434 17.7718V16.2272C4.80434 15.6143 5.30298 15.1156 5.91594 15.1156H24.0841C24.697 15.1156 25.1957 15.6142 25.1957 16.2272V17.7718Z" fill="black"/>
</g>
<defs>
<clipPath id="clip0">
<rect width="30" height="30" fill="white"/>
</clipPath>
</defs>
</svg>
