<svg width="20" height="20" viewBox="0 0 20 20" fill="none" xmlns="http://www.w3.org/2000/svg">
<path d="M1.66671 7.50004H7.98837L6.07754 9.41087C5.99795 9.48774 5.93446 9.57969 5.89079 9.68136C5.84712 9.78303 5.82413 9.89238 5.82317 10.003C5.8222 10.1137 5.84329 10.2234 5.88519 10.3258C5.92709 10.4282 5.98897 10.5213 6.06721 10.5995C6.14546 10.6778 6.2385 10.7396 6.34091 10.7816C6.44333 10.8235 6.55306 10.8445 6.66371 10.8436C6.77436 10.8426 6.88371 10.8196 6.98538 10.776C7.08705 10.7323 7.179 10.6688 7.25587 10.5892L10.5892 7.25587C10.7454 7.0996 10.8332 6.88768 10.8332 6.66671C10.8332 6.44574 10.7454 6.23381 10.5892 6.07754L7.25587 2.74421C7.179 2.66462 7.08705 2.60114 6.98538 2.55746C6.88371 2.51379 6.77436 2.4908 6.66371 2.48984C6.55306 2.48888 6.44333 2.50996 6.34091 2.55186C6.2385 2.59376 6.14546 2.65564 6.06721 2.73388C5.98897 2.81213 5.92709 2.90517 5.88519 3.00758C5.84329 3.11 5.8222 3.21973 5.82317 3.33038C5.82413 3.44103 5.84712 3.55038 5.89079 3.65205C5.93446 3.75372 5.99795 3.84567 6.07754 3.92254L7.98837 5.83337H1.66671C1.44569 5.83337 1.23373 5.92117 1.07745 6.07745C0.921171 6.23373 0.833374 6.44569 0.833374 6.66671C0.833374 6.88772 0.921171 7.09968 1.07745 7.25596C1.23373 7.41224 1.44569 7.50004 1.66671 7.50004Z" fill="black"/>
<path d="M18.3334 12.5001H12.0117L13.9225 10.5893C14.0743 10.4321 14.1583 10.2216 14.1564 10.0031C14.1545 9.7846 14.0669 9.57559 13.9124 9.42108C13.7579 9.26657 13.5489 9.17893 13.3304 9.17703C13.1119 9.17513 12.9014 9.25913 12.7442 9.41093L9.41086 12.7443C9.25463 12.9005 9.16687 13.1125 9.16687 13.3334C9.16687 13.5544 9.25463 13.7663 9.41086 13.9226L12.7442 17.2559C12.9014 17.4077 13.1119 17.4917 13.3304 17.4898C13.5489 17.4879 13.7579 17.4003 13.9124 17.2458C14.0669 17.0913 14.1545 16.8823 14.1564 16.6638C14.1583 16.4453 14.0743 16.2348 13.9225 16.0776L12.0117 14.1668H18.3334C18.5544 14.1668 18.7663 14.079 18.9226 13.9227C19.0789 13.7664 19.1667 13.5544 19.1667 13.3334C19.1667 13.1124 19.0789 12.9005 18.9226 12.7442C18.7663 12.5879 18.5544 12.5001 18.3334 12.5001Z" fill="black"/>
</svg>
