<svg width="24" height="24" viewBox="0 0 24 24" fill="none" xmlns="http://www.w3.org/2000/svg">
<path fill-rule="evenodd" clip-rule="evenodd" d="M4.16146 8.6011e-07H6.83855C7.36569 -1.70213e-05 7.82046 -3.25181e-05 8.19503 0.0305712C8.59037 0.0628723 8.98359 0.134188 9.36197 0.326982C9.92646 0.614602 10.3854 1.07354 10.673 1.63803C10.8658 2.01641 10.9371 2.40963 10.9694 2.80497C11 3.17955 11 3.63432 11 4.16148V6.83852C11 7.36568 11 7.82045 10.9694 8.19503C10.9371 8.59037 10.8658 8.98359 10.673 9.36197C10.3854 9.92646 9.92646 10.3854 9.36197 10.673C8.98359 10.8658 8.59037 10.9371 8.19503 10.9694C7.82045 11 7.36568 11 6.83852 11H4.16148C3.63432 11 3.17955 11 2.80497 10.9694C2.40963 10.9371 2.01641 10.8658 1.63803 10.673C1.07354 10.3854 0.614602 9.92646 0.326982 9.36197C0.134188 8.98359 0.0628723 8.59037 0.0305712 8.19503C-3.25181e-05 7.82046 -1.70213e-05 7.36569 8.6011e-07 6.83855V4.16146C-1.70213e-05 3.63431 -3.25181e-05 3.17955 0.0305712 2.80497C0.0628723 2.40963 0.134188 2.01641 0.326982 1.63803C0.614602 1.07354 1.07354 0.614602 1.63803 0.326982C2.01641 0.134188 2.40963 0.0628723 2.80497 0.0305712C3.17955 -3.25181e-05 3.63431 -1.70213e-05 4.16146 8.6011e-07ZM2.96784 2.02393C2.69617 2.04612 2.59546 2.0838 2.54601 2.109C2.35785 2.20487 2.20487 2.35785 2.109 2.54601C2.0838 2.59546 2.04612 2.69617 2.02393 2.96784C2.00078 3.25117 2 3.62345 2 4.2V6.8C2 7.37655 2.00078 7.74883 2.02393 8.03216C2.04612 8.30383 2.0838 8.40455 2.109 8.45399C2.20487 8.64215 2.35785 8.79513 2.54601 8.89101C2.59546 8.9162 2.69617 8.95388 2.96784 8.97607C3.25117 8.99922 3.62345 9 4.2 9H6.8C7.37655 9 7.74883 8.99922 8.03216 8.97607C8.30383 8.95388 8.40455 8.9162 8.45399 8.89101C8.64215 8.79513 8.79513 8.64215 8.89101 8.45399C8.9162 8.40455 8.95388 8.30383 8.97607 8.03216C8.99922 7.74883 9 7.37655 9 6.8V4.2C9 3.62345 8.99922 3.25117 8.97607 2.96784C8.95388 2.69617 8.9162 2.59546 8.89101 2.54601C8.79513 2.35785 8.64215 2.20487 8.45399 2.109C8.40455 2.0838 8.30383 2.04612 8.03216 2.02393C7.74883 2.00078 7.37655 2 6.8 2H4.2C3.62345 2 3.25117 2.00078 2.96784 2.02393Z" fill="white"/>
<path fill-rule="evenodd" clip-rule="evenodd" d="M4.16146 13H6.83855C7.36569 13 7.82046 13 8.19503 13.0306C8.59037 13.0629 8.98359 13.1342 9.36197 13.327C9.92646 13.6146 10.3854 14.0735 10.673 14.638C10.8658 15.0164 10.9371 15.4096 10.9694 15.805C11 16.1796 11 16.6343 11 17.1615V19.8385C11 20.3657 11 20.8204 10.9694 21.195C10.9371 21.5904 10.8658 21.9836 10.673 22.362C10.3854 22.9265 9.92646 23.3854 9.36197 23.673C8.98359 23.8658 8.59037 23.9371 8.19503 23.9694C7.82045 24 7.36568 24 6.83852 24H4.16148C3.63432 24 3.17955 24 2.80497 23.9694C2.40963 23.9371 2.01641 23.8658 1.63803 23.673C1.07354 23.3854 0.614602 22.9265 0.326982 22.362C0.134188 21.9836 0.0628723 21.5904 0.0305712 21.195C-3.25181e-05 20.8205 -1.70213e-05 20.3657 8.6011e-07 19.8385V17.1615C-1.70213e-05 16.6343 -3.25181e-05 16.1795 0.0305712 15.805C0.0628723 15.4096 0.134188 15.0164 0.326982 14.638C0.614602 14.0735 1.07354 13.6146 1.63803 13.327C2.01641 13.1342 2.40963 13.0629 2.80497 13.0306C3.17955 13 3.63431 13 4.16146 13ZM2.96784 15.0239C2.69617 15.0461 2.59546 15.0838 2.54601 15.109C2.35785 15.2049 2.20487 15.3578 2.109 15.546C2.0838 15.5955 2.04612 15.6962 2.02393 15.9678C2.00078 16.2512 2 16.6234 2 17.2V19.8C2 20.3766 2.00078 20.7488 2.02393 21.0322C2.04612 21.3038 2.0838 21.4045 2.109 21.454C2.20487 21.6422 2.35785 21.7951 2.54601 21.891C2.59546 21.9162 2.69617 21.9539 2.96784 21.9761C3.25117 21.9992 3.62345 22 4.2 22H6.8C7.37655 22 7.74883 21.9992 8.03216 21.9761C8.30383 21.9539 8.40455 21.9162 8.45399 21.891C8.64215 21.7951 8.79513 21.6422 8.89101 21.454C8.9162 21.4045 8.95388 21.3038 8.97607 21.0322C8.99922 20.7488 9 20.3766 9 19.8V17.2C9 16.6234 8.99922 16.2512 8.97607 15.9678C8.95388 15.6962 8.9162 15.5955 8.89101 15.546C8.79513 15.3578 8.64215 15.2049 8.45399 15.109C8.40455 15.0838 8.30383 15.0461 8.03216 15.0239C7.74883 15.0008 7.37655 15 6.8 15H4.2C3.62345 15 3.25117 15.0008 2.96784 15.0239Z" fill="white"/>
<path fill-rule="evenodd" clip-rule="evenodd" d="M17.1615 8.6011e-07H19.8385C20.3657 -1.70213e-05 20.8205 -3.25181e-05 21.195 0.0305712C21.5904 0.0628723 21.9836 0.134188 22.362 0.326982C22.9265 0.614602 23.3854 1.07354 23.673 1.63803C23.8658 2.01641 23.9371 2.40963 23.9694 2.80497C24 3.17955 24 3.63432 24 4.16148V6.83852C24 7.36568 24 7.82045 23.9694 8.19503C23.9371 8.59037 23.8658 8.98359 23.673 9.36197C23.3854 9.92646 22.9265 10.3854 22.362 10.673C21.9836 10.8658 21.5904 10.9371 21.195 10.9694C20.8204 11 20.3657 11 19.8385 11H17.1615C16.6343 11 16.1796 11 15.805 10.9694C15.4096 10.9371 15.0164 10.8658 14.638 10.673C14.0735 10.3854 13.6146 9.92646 13.327 9.36197C13.1342 8.98359 13.0629 8.59037 13.0306 8.19503C13 7.82046 13 7.36569 13 6.83855V4.16146C13 3.63431 13 3.17955 13.0306 2.80497C13.0629 2.40963 13.1342 2.01641 13.327 1.63803C13.6146 1.07354 14.0735 0.614602 14.638 0.326982C15.0164 0.134188 15.4096 0.0628723 15.805 0.0305712C16.1795 -3.25181e-05 16.6343 -1.70213e-05 17.1615 8.6011e-07ZM15.9678 2.02393C15.6962 2.04612 15.5955 2.0838 15.546 2.109C15.3578 2.20487 15.2049 2.35785 15.109 2.54601C15.0838 2.59546 15.0461 2.69617 15.0239 2.96784C15.0008 3.25117 15 3.62345 15 4.2V6.8C15 7.37655 15.0008 7.74883 15.0239 8.03216C15.0461 8.30383 15.0838 8.40455 15.109 8.45399C15.2049 8.64215 15.3578 8.79513 15.546 8.89101C15.5955 8.9162 15.6962 8.95388 15.9678 8.97607C16.2512 8.99922 16.6234 9 17.2 9H19.8C20.3766 9 20.7488 8.99922 21.0322 8.97607C21.3038 8.95388 21.4045 8.9162 21.454 8.89101C21.6422 8.79513 21.7951 8.64215 21.891 8.45399C21.9162 8.40455 21.9539 8.30383 21.9761 8.03216C21.9992 7.74883 22 7.37655 22 6.8V4.2C22 3.62345 21.9992 3.25117 21.9761 2.96784C21.9539 2.69617 21.9162 2.59546 21.891 2.54601C21.7951 2.35785 21.6422 2.20487 21.454 2.109C21.4045 2.0838 21.3038 2.04612 21.0322 2.02393C20.7488 2.00078 20.3766 2 19.8 2H17.2C16.6234 2 16.2512 2.00078 15.9678 2.02393Z" fill="white"/>
<path fill-rule="evenodd" clip-rule="evenodd" d="M17.1615 13H19.8385C20.3657 13 20.8205 13 21.195 13.0306C21.5904 13.0629 21.9836 13.1342 22.362 13.327C22.9265 13.6146 23.3854 14.0735 23.673 14.638C23.8658 15.0164 23.9371 15.4096 23.9694 15.805C24 16.1796 24 16.6343 24 17.1615V19.8385C24 20.3657 24 20.8204 23.9694 21.195C23.9371 21.5904 23.8658 21.9836 23.673 22.362C23.3854 22.9265 22.9265 23.3854 22.362 23.673C21.9836 23.8658 21.5904 23.9371 21.195 23.9694C20.8204 24 20.3657 24 19.8385 24H17.1615C16.6343 24 16.1796 24 15.805 23.9694C15.4096 23.9371 15.0164 23.8658 14.638 23.673C14.0735 23.3854 13.6146 22.9265 13.327 22.362C13.1342 21.9836 13.0629 21.5904 13.0306 21.195C13 20.8205 13 20.3657 13 19.8385V17.1615C13 16.6343 13 16.1795 13.0306 15.805C13.0629 15.4096 13.1342 15.0164 13.327 14.638C13.6146 14.0735 14.0735 13.6146 14.638 13.327C15.0164 13.1342 15.4096 13.0629 15.805 13.0306C16.1795 13 16.6343 13 17.1615 13ZM15.9678 15.0239C15.6962 15.0461 15.5955 15.0838 15.546 15.109C15.3578 15.2049 15.2049 15.3578 15.109 15.546C15.0838 15.5955 15.0461 15.6962 15.0239 15.9678C15.0008 16.2512 15 16.6234 15 17.2V19.8C15 20.3766 15.0008 20.7488 15.0239 21.0322C15.0461 21.3038 15.0838 21.4045 15.109 21.454C15.2049 21.6422 15.3578 21.7951 15.546 21.891C15.5955 21.9162 15.6962 21.9539 15.9678 21.9761C16.2512 21.9992 16.6234 22 17.2 22H19.8C20.3766 22 20.7488 21.9992 21.0322 21.9761C21.3038 21.9539 21.4045 21.9162 21.454 21.891C21.6422 21.7951 21.7951 21.6422 21.891 21.454C21.9162 21.4045 21.9539 21.3038 21.9761 21.0322C21.9992 20.7488 22 20.3766 22 19.8V17.2C22 16.6234 21.9992 16.2512 21.9761 15.9678C21.9539 15.6962 21.9162 15.5955 21.891 15.546C21.7951 15.3578 21.6422 15.2049 21.454 15.109C21.4045 15.0838 21.3038 15.0461 21.0322 15.0239C20.7488 15.0008 20.3766 15 19.8 15H17.2C16.6234 15 16.2512 15.0008 15.9678 15.0239Z" fill="white"/>
</svg>
