<svg width="16" height="17" viewBox="0 0 16 17" fill="none" xmlns="http://www.w3.org/2000/svg">
<path d="M4 2.1C4 1.67565 4.16857 1.26869 4.46863 0.968629C4.76869 0.668571 5.17565 0.5 5.6 0.5H10.4C10.8243 0.5 11.2313 0.668571 11.5314 0.968629C11.8314 1.26869 12 1.67565 12 2.1V3.7H15.2C15.4122 3.7 15.6157 3.78429 15.7657 3.93431C15.9157 4.08434 16 4.28783 16 4.5C16 4.71217 15.9157 4.91566 15.7657 5.06569C15.6157 5.21571 15.4122 5.3 15.2 5.3H14.3448L13.6512 15.0136C13.6225 15.4173 13.4418 15.7951 13.1457 16.0709C12.8495 16.3467 12.4599 16.5 12.0552 16.5H3.944C3.53931 16.5 3.14965 16.3467 2.85351 16.0709C2.55736 15.7951 2.37673 15.4173 2.348 15.0136L1.656 5.3H0.8C0.587827 5.3 0.384344 5.21571 0.234315 5.06569C0.0842854 4.91566 0 4.71217 0 4.5C0 4.28783 0.0842854 4.08434 0.234315 3.93431C0.384344 3.78429 0.587827 3.7 0.8 3.7H4V2.1ZM5.6 3.7H10.4V2.1H5.6V3.7ZM3.2592 5.3L3.9448 14.9H12.056L12.7416 5.3H3.2592ZM6.4 6.9C6.61217 6.9 6.81566 6.98429 6.96569 7.13432C7.11571 7.28434 7.2 7.48783 7.2 7.7V12.5C7.2 12.7122 7.11571 12.9157 6.96569 13.0657C6.81566 13.2157 6.61217 13.3 6.4 13.3C6.18783 13.3 5.98434 13.2157 5.83431 13.0657C5.68429 12.9157 5.6 12.7122 5.6 12.5V7.7C5.6 7.48783 5.68429 7.28434 5.83431 7.13432C5.98434 6.98429 6.18783 6.9 6.4 6.9ZM9.6 6.9C9.81217 6.9 10.0157 6.98429 10.1657 7.13432C10.3157 7.28434 10.4 7.48783 10.4 7.7V12.5C10.4 12.7122 10.3157 12.9157 10.1657 13.0657C10.0157 13.2157 9.81217 13.3 9.6 13.3C9.38783 13.3 9.18434 13.2157 9.03432 13.0657C8.88429 12.9157 8.8 12.7122 8.8 12.5V7.7C8.8 7.48783 8.88429 7.28434 9.03432 7.13432C9.18434 6.98429 9.38783 6.9 9.6 6.9Z" fill="#FF0000"/>
</svg>
