<svg width="20" height="20" viewBox="0 0 20 20" fill="none" xmlns="http://www.w3.org/2000/svg">
<circle cx="10" cy="10" r="9.25" fill="#F5F5F5" stroke="#0075FF" stroke-width="1.5"/>
<path d="M5.4 11.8C6.1732 11.8 6.8 11.1732 6.8 10.4C6.8 9.6268 6.1732 9 5.4 9C4.6268 9 4 9.6268 4 10.4C4 11.1732 4.6268 11.8 5.4 11.8Z" fill="#0075FF"/>
<path d="M9.99998 11.8C10.7732 11.8 11.4 11.1732 11.4 10.4C11.4 9.6268 10.7732 9 9.99998 9C9.22678 9 8.59998 9.6268 8.59998 10.4C8.59998 11.1732 9.22678 11.8 9.99998 11.8Z" fill="#0075FF"/>
<path d="M14.6 11.8C15.3731 11.8 16 11.1732 16 10.4C16 9.6268 15.3731 9 14.6 9C13.8268 9 13.2 9.6268 13.2 10.4C13.2 11.1732 13.8268 11.8 14.6 11.8Z" fill="#0075FF"/>
</svg>
