<svg width="24" height="25" viewBox="0 0 24 25" fill="none" xmlns="http://www.w3.org/2000/svg">
<rect x="1" y="1.5" width="22" height="22" rx="11" fill="white" stroke="#E6E4E0" stroke-width="2"/>
<g clip-path="url(#clip0)">
<path d="M12 17.5C11.8705 17.5 11.7463 17.4486 11.6547 17.357C11.5632 17.2654 11.5117 17.1412 11.5117 17.0117V7.98828C11.5117 7.85878 11.5632 7.73458 11.6547 7.64301C11.7463 7.55144 11.8705 7.5 12 7.5C12.1295 7.5 12.2537 7.55144 12.3453 7.64301C12.4368 7.73458 12.4883 7.85878 12.4883 7.98828V17.0117C12.4883 17.1412 12.4368 17.2654 12.3453 17.357C12.2537 17.4486 12.1295 17.5 12 17.5Z" fill="black"/>
<path d="M16.5117 12.9883H7.48828C7.35878 12.9883 7.23458 12.9368 7.14301 12.8453C7.05144 12.7537 7 12.6295 7 12.5C7 12.3705 7.05144 12.2463 7.14301 12.1547C7.23458 12.0632 7.35878 12.0117 7.48828 12.0117H16.5117C16.6412 12.0117 16.7654 12.0632 16.857 12.1547C16.9486 12.2463 17 12.3705 17 12.5C17 12.6295 16.9486 12.7537 16.857 12.8453C16.7654 12.9368 16.6412 12.9883 16.5117 12.9883Z" fill="black"/>
</g>
<defs>
<clipPath id="clip0">
<rect width="10" height="10" fill="white" transform="translate(7 7.5)"/>
</clipPath>
</defs>
</svg>
