<svg width="111" height="37" viewBox="0 0 111 37" fill="none" xmlns="http://www.w3.org/2000/svg">
<path d="M7.87737 28.822L0.280029 28.7949L7.90195 36.3445L7.87737 28.822Z" fill="#005B00"/>
<path d="M0.278686 4.77612C0.278692 2.57123 2.06305 0.786948 4.26804 0.786942L106.08 0.786693C107.813 0.786689 108.732 2.84044 107.574 4.12677L99.6991 12.8758C98.6692 14.02 98.6762 15.7608 99.7154 16.9022L107.85 25.8373C109.02 27.1223 108.114 29.1814 106.378 29.1814L0.278619 29.1814L0.278686 4.77612Z" fill="#19A719"/>
<path d="M23.6295 10.2615L21.9261 10.2757L21.98 16.7201L21.8969 16.7208L17.3928 10.3136L15.8602 10.3265L15.9393 19.7807L17.652 19.7664L17.5981 13.3266L17.6766 13.3259L22.1852 19.7284L23.7086 19.7157L23.6295 10.2615ZM28.6411 19.8129C30.2938 19.7991 31.4226 18.9817 31.7078 17.7467L30.146 17.5843C29.9248 18.1863 29.3735 18.5049 28.6533 18.5109C27.5731 18.5199 26.8516 17.815 26.8276 16.601L31.7671 16.5597L31.7628 16.0473C31.742 13.5591 30.2371 12.4776 28.4922 12.4922C26.461 12.5092 25.1486 14.0113 25.1669 16.1994C25.1855 18.4245 26.5038 19.8308 28.6411 19.8129ZM26.8228 15.4746C26.866 14.5694 27.529 13.8021 28.5261 13.7938C29.4863 13.7857 30.1385 14.482 30.1558 15.4467L26.8228 15.4746ZM34.632 19.6243L36.3769 19.6097L37.6663 14.8068L37.7633 14.806L39.1329 19.5866L40.8732 19.5721L42.822 12.4646L41.1139 12.4789L39.9275 17.4471L39.8582 17.4477L38.5427 12.5004L36.8577 12.5145L35.6253 17.5108L35.5607 17.5113L34.2726 12.5361L32.5691 12.5504L34.632 19.6243ZM48.5605 19.5077L49.3212 17.17L52.8757 17.1402L53.68 19.4649L55.5081 19.4496L52.096 10.0233L49.9817 10.041L46.7325 19.523L48.5605 19.5077ZM49.7713 15.7904L51.0182 11.9713L51.092 11.9707L52.4026 15.7684L49.7713 15.7904ZM56.6795 19.4398L58.3506 19.4258L58.3157 15.2573C58.3082 14.3571 58.9814 13.7144 59.9001 13.7067C60.1817 13.7043 60.5329 13.7522 60.6764 13.7971L60.6636 12.2599C60.511 12.2335 60.2477 12.2172 60.0631 12.2188C59.2506 12.2256 58.5759 12.6929 58.3242 13.5167L58.2504 13.5174L58.2405 12.3356L56.6201 12.3491L56.6795 19.4398ZM61.8336 19.3967L63.5047 19.3827L63.4698 15.2142C63.4623 14.314 64.1356 13.6712 65.0542 13.6636C65.3358 13.6612 65.6871 13.709 65.8306 13.754L65.8177 12.2168C65.6651 12.1904 65.4018 12.1741 65.2172 12.1756C64.4047 12.1824 63.73 12.6497 63.4783 13.4736L63.4045 13.4742L63.3946 12.2925L61.7743 12.306L61.8336 19.3967ZM66.9877 19.3535L68.6588 19.3396L68.5995 12.2489L66.9284 12.2629L66.9877 19.3535ZM67.7601 11.2495C68.291 11.2451 68.7215 10.8352 68.7174 10.3366C68.7132 9.83345 68.2758 9.43085 67.7449 9.43529C67.2095 9.43977 66.7789 9.84964 66.7831 10.3528C66.7873 10.8514 67.2246 11.254 67.7601 11.2495ZM76.6515 12.1815L74.8742 12.1964L73.2841 17.4773L73.2102 17.4779L71.5366 12.2243L69.7547 12.2392L72.3392 19.3088L74.1857 19.2933L76.6515 12.1815ZM79.7057 19.3902C80.8182 19.3809 81.4786 18.8537 81.7783 18.2557L81.8337 18.2552L81.8419 19.2293L83.4483 19.2158L83.4086 14.4702C83.3929 12.596 81.8602 12.0456 80.5077 12.0569C79.0166 12.0694 77.8773 12.7437 77.5188 14.0394L79.081 14.2479C79.2431 13.7618 79.7105 13.3424 80.5276 13.3356C81.3031 13.3291 81.7311 13.7225 81.737 14.4196L81.7372 14.4473C81.7412 14.9274 81.2382 14.9547 79.9883 15.099C78.6139 15.2583 77.3017 15.6801 77.3151 17.2774C77.3267 18.6715 78.3531 19.4016 79.7057 19.3902ZM80.1294 18.1587C79.4323 18.1645 78.9311 17.8502 78.9259 17.2362C78.9206 16.5945 79.4769 16.3221 80.2239 16.2097C80.6619 16.146 81.5381 16.0279 81.7536 15.8506L81.7606 16.6862C81.7672 17.4756 81.1357 18.1503 80.1294 18.1587ZM86.7207 9.73356L85.0496 9.74754L85.1287 19.2018L86.7998 19.1878L86.7207 9.73356Z" fill="white"/>
</svg>
