<svg width="80" height="52" viewBox="0 0 80 52" fill="none" xmlns="http://www.w3.org/2000/svg">
<path d="M39.9996 24.2667C46.7006 24.2667 52.1329 18.8344 52.1329 12.1333C52.1329 5.43229 46.7006 0 39.9996 0C33.2985 0 27.8662 5.43229 27.8662 12.1333C27.8662 18.8344 33.2985 24.2667 39.9996 24.2667Z" fill="#302C2C"/>
<path d="M64.2667 31.2001C69.0531 31.2001 72.9333 27.32 72.9333 22.5335C72.9333 17.7471 69.0531 13.8669 64.2667 13.8669C59.4803 13.8669 55.6001 17.7471 55.6001 22.5335C55.6001 27.32 59.4803 31.2001 64.2667 31.2001Z" fill="#302C2C"/>
<path d="M15.9796 31.2001C20.766 31.2001 24.6462 27.32 24.6462 22.5335C24.6462 17.7471 20.766 13.8669 15.9796 13.8669C11.1932 13.8669 7.31299 17.7471 7.31299 22.5335C7.31299 27.32 11.1932 31.2001 15.9796 31.2001Z" fill="#302C2C"/>
<path d="M39.9996 27.733C27.5751 27.733 17.4663 37.8418 17.4663 50.2663C17.4663 51.2231 18.2429 51.9997 19.1997 51.9997H60.7996C61.7564 51.9997 62.5329 51.2231 62.5329 50.2663C62.5329 37.8418 52.4242 27.733 39.9996 27.733Z" fill="#302C2C"/>
<path d="M18.9676 35.0414C17.9068 34.816 16.8287 34.667 15.7333 34.667C7.13248 34.667 0.133301 41.6662 0.133301 50.2669C0.133301 51.2237 0.909886 52.0003 1.86668 52.0003H14.3189C14.1247 51.4561 13.9999 50.8771 13.9999 50.2669C13.9999 44.5782 15.8581 39.3262 18.9676 35.0414Z" fill="#302C2C"/>
<path d="M64.2666 34.667C63.1712 34.667 62.093 34.816 61.0322 35.0414C64.1418 39.3262 66 44.5782 66 50.2669C66 50.8771 65.8752 51.456 65.681 52.0003H78.1332C79.09 52.0003 79.8666 51.2237 79.8666 50.2669C79.8666 41.6662 72.8674 34.667 64.2666 34.667Z" fill="#302C2C"/>
</svg>
