<svg width="18" height="18" viewBox="0 0 18 18" fill="none" xmlns="http://www.w3.org/2000/svg">
<path d="M0.25 15.8915C0.25 16.9163 1.08375 17.75 2.1085 17.75H15.8914C16.9163 17.75 17.75 16.9163 17.75 15.8915V2.1085C17.75 1.08375 16.9163 0.25 15.8915 0.25H2.1085C1.08375 0.25 0.25 1.08375 0.25 2.1085V15.8915ZM15.8915 16.5H2.1085C1.77281 16.5 1.5 16.2272 1.5 15.8915V14.9257L7.10363 10.4423L12.3349 15.0919C12.5925 15.3214 12.9874 15.2989 13.2169 15.0401C13.4464 14.7825 13.4232 14.387 13.165 14.1581L11.7344 12.8865L13.3164 11.7003L16.5 14.8838V15.8915C16.5 16.2272 16.2272 16.5 15.8915 16.5ZM2.1085 1.5H15.8914C16.2272 1.5 16.5 1.77281 16.5 2.1085V13.1162L13.8169 10.4331C13.5978 10.2121 13.2486 10.1883 13.0002 10.3751L10.7814 12.0393L7.54 9.15806C7.31356 8.95544 6.973 8.94625 6.73431 9.13669L1.5 13.3243V2.1085C1.5 1.77281 1.77281 1.5 2.1085 1.5Z" fill="#302C2C"/>
<path d="M12.125 7.75C13.5038 7.75 14.625 6.62881 14.625 5.25C14.625 3.87119 13.5038 2.75 12.125 2.75C10.7462 2.75 9.625 3.87119 9.625 5.25C9.625 6.62881 10.7462 7.75 12.125 7.75ZM12.125 4C12.8141 4 13.375 4.56094 13.375 5.25C13.375 5.93906 12.8141 6.5 12.125 6.5C11.4359 6.5 10.875 5.93906 10.875 5.25C10.875 4.56094 11.4359 4 12.125 4Z" fill="#302C2C"/>
</svg>
