<svg width="24" height="30" viewBox="0 0 24 30" fill="none" xmlns="http://www.w3.org/2000/svg">
<path d="M23.7463 7.67625L16.3238 0.253744C16.1613 0.0912416 15.941 0 15.7113 0H3.18577C1.42914 0 0 1.42909 0 3.18572V26.3811C0 28.1378 1.42914 29.5669 3.18572 29.5669H20.8143C22.5709 29.5669 24 28.1378 24 26.3811V8.28872C24 8.059 23.9087 7.83863 23.7463 7.67625ZM16.5775 2.95744L21.0426 7.4225H18.0308C17.2295 7.4225 16.5775 6.77053 16.5775 5.96916V2.95744ZM20.8143 27.8345H3.18572C2.38441 27.8345 1.73243 27.1825 1.73243 26.3811V3.18572C1.73243 2.38435 2.38441 1.73244 3.18572 1.73244H14.845V5.96916C14.845 7.72579 16.2741 9.15494 18.0308 9.15494H22.2676V26.3811C22.2676 27.1825 21.6156 27.8345 20.8143 27.8345Z" fill="#302C2C"/>
<path d="M11.0722 14.722L14.7835 14.7218C15.2619 14.7218 15.6497 14.3339 15.6497 13.8556C15.6497 13.3772 15.2619 12.9894 14.7835 12.9894L12.8662 12.9895V12C12.8662 11.5216 12.4784 11.1338 12 11.1338C11.5216 11.1338 11.1338 11.5216 11.1338 12V12.9896H11.0723C9.57139 12.9896 8.35037 14.2106 8.35037 15.7113C8.35037 17.2121 9.57139 18.4332 11.0724 18.4332L12.9278 18.4329C13.4734 18.4331 13.9173 18.877 13.9173 19.4226C13.9173 19.9682 13.4735 20.412 12.9279 20.412H9.21653C8.73815 20.412 8.35031 20.7999 8.35031 21.2782C8.35031 21.7566 8.73815 22.1445 9.21653 22.1445H11.1338V23.1338C11.1338 23.6122 11.5216 24 12 24C12.4784 24 12.8662 23.6122 12.8662 23.1338V22.1444H12.9279C14.4287 22.1444 15.6496 20.9233 15.6496 19.4225C15.6496 17.9219 14.4287 16.7008 12.9278 16.7005L11.0721 16.7007C10.5265 16.7007 10.0827 16.2568 10.0827 15.7112C10.0827 15.1658 10.5266 14.722 11.0722 14.722Z" fill="#302C2C"/>
</svg>
