<svg width="24" height="24" viewBox="0 0 24 24" fill="none" xmlns="http://www.w3.org/2000/svg">
<path d="M23 12C23 18.0751 18.0751 23 12 23C5.92487 23 1 18.0751 1 12C1 5.92487 5.92487 1 12 1C18.0751 1 23 5.92487 23 12Z" stroke="#302C2C" stroke-width="2"/>
<path d="M10.4545 14.7933H12.7425V14.5881C12.7546 13.4109 13.1772 12.8615 14.131 12.288C15.2599 11.6179 15.9964 10.7305 15.9964 9.31179C15.9964 7.19886 14.294 5.96733 11.8974 5.96733C9.70597 5.96733 7.91903 7.11435 7.8647 9.52912H10.3278C10.364 8.5451 11.0945 8.01989 11.8853 8.01989C12.7003 8.01989 13.3583 8.56321 13.3583 9.40234C13.3583 10.1932 12.7848 10.7184 12.0423 11.1893C11.0281 11.8292 10.4606 12.4751 10.4545 14.5881V14.7933ZM11.6438 18.657C12.4165 18.657 13.0866 18.011 13.0927 17.2081C13.0866 16.4173 12.4165 15.7713 11.6438 15.7713C10.8469 15.7713 10.1889 16.4173 10.195 17.2081C10.1889 18.011 10.8469 18.657 11.6438 18.657Z" fill="#302C2C"/>
</svg>
