<svg width="14" height="14" viewBox="0 0 14 14" fill="none" xmlns="http://www.w3.org/2000/svg">
<path d="M7.93543 9.86367C7.79231 9.87702 7.64862 9.84472 7.52497 9.77139C7.43463 9.67864 7.39132 9.54988 7.40726 9.42139C7.41059 9.31442 7.42336 9.20794 7.44543 9.10322C7.46678 8.98307 7.49437 8.86412 7.52814 8.74685L7.9036 7.45502C7.94232 7.32751 7.96791 7.19637 7.97997 7.06365C7.97997 6.92047 7.99906 6.82182 7.99906 6.76456C8.00704 6.50936 7.89808 6.26447 7.70314 6.09956C7.46337 5.91548 7.16477 5.825 6.86314 5.84502C6.64699 5.84827 6.43251 5.88365 6.22677 5.95002C6.00193 6.02002 5.7654 6.1038 5.51723 6.20139L5.40906 6.62139C5.48223 6.59593 5.57134 6.5673 5.67314 6.53547C5.77027 6.50671 5.87095 6.4917 5.97223 6.49093C6.11431 6.47554 6.25732 6.51043 6.37632 6.58956C6.45714 6.686 6.49507 6.81129 6.48132 6.93639C6.48096 7.04338 6.46923 7.15005 6.44632 7.25456C6.42403 7.36593 6.3954 7.48365 6.3604 7.60773L5.98177 8.9059C5.95126 9.02657 5.92684 9.14869 5.9086 9.27182C5.89373 9.37723 5.88629 9.48354 5.88632 9.58999C5.88476 9.84694 6.00225 10.0901 6.20449 10.2486C6.44796 10.4356 6.75082 10.5282 7.0572 10.5095C7.27294 10.514 7.48795 10.4828 7.69357 10.4172C7.87388 10.3557 8.11464 10.2677 8.41586 10.1532L8.51769 9.75225C8.43609 9.7861 8.35207 9.81374 8.26632 9.83496C8.15787 9.85974 8.04653 9.86936 7.93543 9.86367Z" fill="#302C2C"/>
<path d="M8.33311 3.73862C8.15995 3.57958 7.93179 3.49403 7.69674 3.49999C7.46183 3.49468 7.23389 3.58016 7.06037 3.73862C6.74231 4.01287 6.70679 4.49306 6.98107 4.81115C7.00552 4.8395 7.03202 4.866 7.06037 4.89044C7.42273 5.21455 7.97075 5.21455 8.33309 4.89044C8.65115 4.61348 8.68448 4.13114 8.40752 3.81307C8.38449 3.78658 8.35961 3.76169 8.33311 3.73862Z" fill="#302C2C"/>
<path d="M7 0C3.134 0 0 3.134 0 7C0 10.866 3.134 14 7 14C10.866 14 14 10.866 14 7C14 3.134 10.866 0 7 0ZM7 13.3636C3.48545 13.3636 0.636371 10.5145 0.636371 7C0.636371 3.48545 3.48545 0.636371 7 0.636371C10.5145 0.636371 13.3636 3.48545 13.3636 7C13.3636 10.5145 10.5145 13.3636 7 13.3636Z" fill="#302C2C"/>
</svg>
