<svg width="24" height="14" viewBox="0 0 24 14" fill="none" xmlns="http://www.w3.org/2000/svg">
<path d="M24 0.864706C24 1.09404 23.9097 1.31398 23.749 1.47615C23.5882 1.63831 23.3702 1.72941 23.1429 1.72941H0.857143C0.629814 1.72941 0.411797 1.63831 0.251051 1.47615C0.0903058 1.31398 0 1.09404 0 0.864706C0 0.635372 0.0903058 0.41543 0.251051 0.253267C0.411797 0.0911028 0.629814 0 0.857143 0H23.1429C23.3702 0 23.5882 0.0911028 23.749 0.253267C23.9097 0.41543 24 0.635372 24 0.864706ZM19.7143 6.13529H0.857143C0.629814 6.13529 0.411797 6.2264 0.251051 6.38856C0.0903058 6.55072 0 6.77067 0 7C0 7.22933 0.0903058 7.44928 0.251051 7.61144C0.411797 7.7736 0.629814 7.86471 0.857143 7.86471H19.7143C19.9416 7.86471 20.1596 7.7736 20.3204 7.61144C20.4811 7.44928 20.5714 7.22933 20.5714 7C20.5714 6.77067 20.4811 6.55072 20.3204 6.38856C20.1596 6.2264 19.9416 6.13529 19.7143 6.13529ZM12 12.2706H0.857143C0.629814 12.2706 0.411797 12.3617 0.251051 12.5239C0.0903058 12.686 0 12.906 0 13.1353C0 13.3646 0.0903058 13.5846 0.251051 13.7467C0.411797 13.9089 0.629814 14 0.857143 14H12C12.2273 14 12.4453 13.9089 12.6061 13.7467C12.7668 13.5846 12.8571 13.3646 12.8571 13.1353C12.8571 12.906 12.7668 12.686 12.6061 12.5239C12.4453 12.3617 12.2273 12.2706 12 12.2706Z" fill="#005ECC"/>
</svg>
