<svg width="24" height="24" viewBox="0 0 24 24" fill="none" xmlns="http://www.w3.org/2000/svg">
<path fill-rule="evenodd" clip-rule="evenodd" d="M8.65112 2.27239C8.985 0.93689 10.185 0 11.5616 0H12.4384C13.8151 0 15.015 0.936892 15.3489 2.27239L15.432 2.60476C15.699 2.70232 15.9606 2.81091 16.2164 2.92999L16.5105 2.75353C17.6909 2.04527 19.2019 2.23128 20.1753 3.20468L20.7954 3.82474C21.7688 4.79815 21.9548 6.30912 21.2465 7.48955L21.07 7.78367C21.1891 8.0394 21.2977 8.30104 21.3952 8.56803L21.7276 8.65112C23.0631 8.985 24 10.1849 24 11.5616V12.4384C24 13.815 23.0631 15.015 21.7276 15.3489L21.3952 15.432C21.2977 15.699 21.1891 15.9606 21.07 16.2163L21.2465 16.5104C21.9547 17.6909 21.7687 19.2018 20.7953 20.1752L20.1753 20.7953C19.2019 21.7687 17.6909 21.9547 16.5105 21.2464L16.2164 21.07C15.9606 21.1891 15.699 21.2977 15.432 21.3952L15.3489 21.7276C15.015 23.0631 13.8151 24 12.4384 24H11.5616C10.185 24 8.985 23.0631 8.65112 21.7276L8.56804 21.3952C8.30103 21.2977 8.03938 21.1891 7.78363 21.07L7.48958 21.2464C6.30915 21.9547 4.79818 21.7687 3.82477 20.7953L3.20471 20.1752C2.23131 19.2018 2.0453 17.6909 2.75356 16.5104L2.92998 16.2164C2.81091 15.9606 2.70231 15.699 2.60476 15.432L2.27239 15.3489C0.93689 15.015 0 13.815 0 12.4384V11.5616C0 10.1849 0.936892 8.985 2.27239 8.65112L2.60476 8.56803C2.70232 8.30102 2.81091 8.03936 2.92999 7.78361L2.75355 7.48955C2.04529 6.30912 2.2313 4.79815 3.20471 3.82474L3.82477 3.20468C4.79817 2.23128 6.30915 2.04527 7.48958 2.75353L7.78365 2.92997C8.03939 2.8109 8.30104 2.70231 8.56804 2.60476L8.65112 2.27239ZM11.5616 2C11.1027 2 10.7027 2.3123 10.5914 2.75746L10.2373 4.17375L9.69295 4.3374C9.17618 4.49274 8.6813 4.69903 8.21409 4.95054L7.71329 5.22013L6.46058 4.46851C6.06711 4.23243 5.56345 4.29443 5.23898 4.6189L4.61892 5.23895C4.29445 5.56342 4.23245 6.06708 4.46854 6.46056L5.22015 7.71325L4.95056 8.21405C4.69904 8.68128 4.49275 9.17617 4.3374 9.69295L4.17375 10.2373L2.75746 10.5914C2.3123 10.7027 2 11.1027 2 11.5616V12.4384C2 12.8973 2.3123 13.2973 2.75746 13.4086L4.17375 13.7627L4.3374 14.307C4.49274 14.8238 4.69904 15.3187 4.95056 15.7859L5.22015 16.2867L4.46854 17.5394C4.23246 17.9329 4.29446 18.4365 4.61893 18.761L5.23899 19.3811C5.56345 19.7055 6.06711 19.7675 6.46059 19.5315L7.71327 18.7799L8.21407 19.0494C8.68129 19.301 9.17618 19.5073 9.69295 19.6626L10.2373 19.8262L10.5914 21.2425C10.7027 21.6877 11.1027 22 11.5616 22H12.4384C12.8973 22 13.2973 21.6877 13.4086 21.2425L13.7627 19.8262L14.3071 19.6626C14.8238 19.5073 15.3187 19.301 15.7859 19.0494L16.2867 18.7798L17.5394 19.5315C17.9329 19.7675 18.4366 19.7055 18.761 19.3811L19.3811 18.761C19.7056 18.4365 19.7676 17.9329 19.5315 17.5394L18.7799 16.2867L19.0495 15.7859C19.301 15.3187 19.5073 14.8238 19.6626 14.307L19.8263 13.7627L21.2425 13.4086C21.6877 13.2973 22 12.8973 22 12.4384V11.5616C22 11.1027 21.6877 10.7027 21.2425 10.5914L19.8263 10.2373L19.6626 9.69295C19.5073 9.17619 19.301 8.68131 19.0495 8.2141L18.7799 7.7133L19.5315 6.46056C19.7676 6.06708 19.7056 5.56342 19.3811 5.23895L18.7611 4.6189C18.4366 4.29443 17.933 4.23243 17.5395 4.46851L16.2867 5.22015L15.7859 4.95056C15.3187 4.69904 14.8238 4.49274 14.3071 4.3374L13.7627 4.17375L13.4086 2.75746C13.2973 2.3123 12.8973 2 12.4384 2H11.5616Z" fill="#302C2C"/>
<path fill-rule="evenodd" clip-rule="evenodd" d="M12 10C10.8954 10 10 10.8954 10 12C10 13.1046 10.8954 14 12 14C13.1046 14 14 13.1046 14 12C14 10.8954 13.1046 10 12 10ZM8 12C8 9.79086 9.79086 8 12 8C14.2091 8 16 9.79086 16 12C16 14.2091 14.2091 16 12 16C9.79086 16 8 14.2091 8 12Z" fill="#302C2C"/>
</svg>
