<svg width="22" height="22" viewBox="0 0 22 22" fill="none" xmlns="http://www.w3.org/2000/svg">
<path d="M10.827 0C8.68565 0 6.59235 0.635729 4.81186 1.82679C3.03136 3.01786 1.64363 4.71077 0.824163 6.69144C0.00469117 8.67211 -0.20972 10.8516 0.208043 12.9542C0.625806 15.0569 1.65698 16.9883 3.17117 18.5043C4.68535 20.0202 6.61455 21.0526 8.71478 21.4708C10.815 21.8891 12.992 21.6744 14.9704 20.854C16.9487 20.0336 18.6397 18.6442 19.8294 16.8617C21.0191 15.0791 21.6541 12.9834 21.6541 10.8396C21.6541 7.96473 20.5134 5.20764 18.4829 3.17483C16.4524 1.14202 13.6985 0 10.827 0ZM10.827 20.1306C8.99156 20.1306 7.19731 19.5857 5.67117 18.5648C4.14503 17.5439 2.95555 16.0928 2.25314 14.3951C1.55074 12.6974 1.36696 10.8292 1.72504 9.02696C2.08312 7.22467 2.96699 5.56917 4.26486 4.26979C5.56274 2.97042 7.21633 2.08553 9.01653 1.72703C10.8167 1.36854 12.6827 1.55253 14.3784 2.25575C16.0742 2.95896 17.5236 4.14982 18.5433 5.67773C19.5631 7.20563 20.1073 9.00196 20.1073 10.8396C20.1073 13.3037 19.1296 15.6669 17.3892 17.4093C15.6488 19.1517 13.2883 20.1306 10.827 20.1306ZM16.2405 10.8396C16.2405 11.0449 16.1591 11.2418 16.014 11.387C15.869 11.5322 15.6723 11.6138 15.4672 11.6138H11.6004V15.4851C11.6004 15.6904 11.5189 15.8874 11.3739 16.0326C11.2288 16.1778 11.0321 16.2593 10.827 16.2593C10.6219 16.2593 10.4252 16.1778 10.2802 16.0326C10.1351 15.8874 10.0537 15.6904 10.0537 15.4851V11.6138H6.18688C5.98177 11.6138 5.78506 11.5322 5.64003 11.387C5.495 11.2418 5.41352 11.0449 5.41352 10.8396C5.41352 10.6342 5.495 10.4373 5.64003 10.2921C5.78506 10.1469 5.98177 10.0653 6.18688 10.0653H10.0537V6.19403C10.0537 5.98869 10.1351 5.79175 10.2802 5.64655C10.4252 5.50135 10.6219 5.41978 10.827 5.41978C11.0321 5.41978 11.2288 5.50135 11.3739 5.64655C11.5189 5.79175 11.6004 5.98869 11.6004 6.19403V10.0653H15.4672C15.6723 10.0653 15.869 10.1469 16.014 10.2921C16.1591 10.4373 16.2405 10.6342 16.2405 10.8396Z" fill="#0075FF"/>
</svg>
