<svg width="20" height="14" viewBox="0 0 20 14" fill="none" xmlns="http://www.w3.org/2000/svg">
<path d="M19.9353 1.22026C19.8925 1.1169 19.8303 1.02448 19.753 0.947138C19.7479 0.942099 19.7429 0.94124 19.7387 0.937061C19.6631 0.865616 19.5765 0.805969 19.479 0.765618C19.3992 0.732845 19.3152 0.722767 19.2311 0.715189C19.206 0.713509 19.1849 0.701752 19.1597 0.701752H12.4371C11.9724 0.701752 11.5968 1.07737 11.5968 1.54209C11.5968 2.00681 11.9724 2.38243 12.4371 2.38243H17.1396L10.4875 9.07224L7.95648 5.83194C7.81027 5.64456 7.59262 5.52859 7.35735 5.51093C7.11282 5.49328 6.88759 5.57648 6.71619 5.73866L0.2625 11.8487C-0.0744872 12.168 -0.0887448 12.6999 0.229727 13.0369C0.39613 13.2109 0.617963 13.2982 0.840655 13.2982C1.04823 13.2982 1.25577 13.2218 1.41795 13.0688L7.2002 7.59411L9.74891 10.8571C9.89766 11.0478 10.1204 11.1646 10.3615 11.1789C10.6027 11.1923 10.8371 11.1033 11.0077 10.9327L18.3194 3.57901V8.26468C18.3194 8.72936 18.695 9.10502 19.1597 9.10502C19.6244 9.10502 20 8.7294 20 8.26468V1.54213V1.54127C19.9992 1.43119 19.9773 1.3228 19.9353 1.22026Z" fill="#302C2C"/>
</svg>
