<svg width="13" height="15" viewBox="0 0 13 15" fill="none" xmlns="http://www.w3.org/2000/svg">
<path d="M12.2778 0.5H0.722222C0.530677 0.5 0.346977 0.577632 0.211534 0.715818C0.0760912 0.854003 0 1.04142 0 1.23685V3.14528C0 3.53066 0.153833 3.9094 0.421056 4.18203L4.33333 8.17353V13.7633C4.33347 13.8888 4.36502 14.0122 4.42498 14.1219C4.48494 14.2315 4.57134 14.3237 4.67599 14.3897C4.78063 14.4557 4.90007 14.4934 5.02299 14.4992C5.1459 14.505 5.26823 14.4787 5.37839 14.4227L8.26728 12.949C8.51211 12.8238 8.66667 12.5688 8.66667 12.2896V8.17353L12.5789 4.18203C12.8462 3.9094 13 3.53066 13 3.14528V1.23685C13 1.04142 12.9239 0.854003 12.7885 0.715818C12.653 0.577632 12.4693 0.5 12.2778 0.5ZM7.43383 7.34753C7.36664 7.41584 7.31334 7.49703 7.27703 7.58644C7.24071 7.67585 7.22208 7.7717 7.22222 7.86848V11.8342L5.77778 12.571V7.86848C5.77792 7.7717 5.75929 7.67585 5.72297 7.58644C5.68666 7.49703 5.63336 7.41584 5.56617 7.34753L1.44444 3.14528V1.9737H11.5563L11.5577 3.14013L7.43383 7.34753Z" fill="#0075FF"/>
</svg>
